<svg width="177" height="177" viewBox="0 0 177 177" fill="none" xmlns="http://www.w3.org/2000/svg">
<path d="M83.7033 11.2608C71.423 11.7351 59.5534 15.3105 48.9405 21.7356C42.788 25.4632 36.993 30.2387 32.1574 35.577C31.8494 35.9169 31.3892 36.4125 31.1308 36.6744C29.8741 37.9701 28.2173 39.9135 27.0421 41.4711C25.5871 43.4004 24.6172 44.8801 24.0614 46.02C23.9056 46.3422 23.5127 47.0502 23.187 47.5989C22.0613 49.4821 21.3639 50.7424 20.4577 52.5159C15.6857 61.8828 12.8927 72.1204 12.2661 82.5528C12.1634 84.3087 12.1316 85.6574 12.1528 87.7212C12.1741 89.7213 12.1953 90.2877 12.3015 91.9161C12.79 99.2192 14.4715 106.593 17.2115 113.436C17.3672 113.825 17.6752 114.629 17.8982 115.22C18.762 117.517 19.3426 118.866 20.2842 120.767C21.2011 122.615 22.0046 124.045 23.1374 125.836C23.3498 126.173 23.6649 126.675 23.8348 126.952C24.164 127.49 25.1375 128.877 25.4703 129.281C25.7606 129.638 26.3199 130.159 26.6951 130.431C27.1022 130.722 27.7005 131.019 28.1253 131.143C28.5466 131.263 29.1731 131.295 29.559 131.214C29.998 131.122 30.3059 130.945 30.6741 130.576C31.1697 130.084 31.3361 129.702 31.4706 128.782C31.6016 127.879 31.5591 127.295 31.3255 126.661C31.0989 126.045 30.1006 124.413 29.5413 123.744C27.9695 121.857 26.281 119.181 24.8012 116.222C20.6028 107.836 17.6327 96.642 17.2398 87.7212C17.1867 86.4822 17.0947 83.098 17.1159 83.0413C17.123 83.0166 17.1478 82.5174 17.169 81.9333C17.1902 81.3492 17.2292 80.705 17.2575 80.4996C17.2858 80.2943 17.3283 79.8483 17.346 79.5084C17.4203 78.2376 17.5513 77.2074 17.7708 76.2339C17.8274 75.979 17.9443 75.4091 18.0363 74.9666C18.1248 74.5206 18.2699 73.8763 18.3584 73.5329C19.07 70.7505 20.4718 66.7149 21.3993 64.782C21.5834 64.4032 21.8418 63.8368 21.9763 63.5253C22.5604 62.173 23.5799 60.0844 24.3056 58.7428C27.2049 53.3797 30.7838 48.3564 34.9894 43.7544C35.7469 42.9261 38.0515 40.6215 38.8692 39.8746C41.4463 37.5169 43.6447 35.8319 46.2005 34.2389C46.5793 34.0053 47.1209 33.6477 47.4041 33.4495C51.4504 30.5892 55.8081 28.1466 60.2508 26.242C70.2371 21.9586 80.9492 20.2347 91.1196 21.279C98.9253 22.079 106.363 24.3658 112.82 27.9589C116.891 30.221 121.139 33.3574 123.758 36.0231C125.054 37.3435 125.939 38.3595 126.541 39.2232C126.75 39.5241 127.005 39.8817 127.104 40.0197C127.383 40.3985 127.96 41.2729 128.3 41.8322C129.295 43.4748 129.999 44.958 130.736 46.9758C130.888 47.3935 131.086 47.9352 131.175 48.1759C131.989 50.3671 132.283 53.3797 131.989 56.4913C131.805 58.4206 131.359 60.5517 130.764 62.3217C129.621 65.7272 127.985 68.2689 126.077 69.6C125.695 69.8655 124.743 70.4212 124.374 70.5912C124.01 70.7611 123.394 70.9275 122.934 70.9806C122.126 71.0726 121.213 70.8071 120.502 70.2726C120.211 70.0566 119.684 69.5079 119.471 69.207C118.891 68.3857 118.438 67.3202 118.222 66.2582C117.999 65.1679 117.981 64.513 118.133 63.0828C118.151 62.9164 118.183 62.4952 118.201 62.1447C118.24 61.3978 118.208 61.1181 118.013 60.619C117.588 59.5216 116.979 58.8419 115.946 58.3251C114.877 57.7834 113.638 57.6525 112.306 57.9357C112.073 57.9852 111.613 58.0702 111.28 58.1304C109.669 58.41 108.409 58.8702 107.262 59.5995C106.674 59.9747 106.667 59.9782 106.543 59.9039C106.483 59.872 106.391 59.7871 106.335 59.7163L106.232 59.5888L106.306 59.0968C106.618 57.0011 106.211 54.9231 105.177 53.3407C104.101 51.6911 102.37 50.5194 100.253 50.0061C98.9996 49.7052 97.796 49.6237 96.4473 49.7547C95.0101 49.8928 93.7958 50.1937 92.2878 50.7884C91.1515 51.2344 90.1178 51.7761 89.0487 52.4805C88.546 52.8133 88.3726 52.9549 87.9832 53.3372C87.4097 53.9036 87.0946 54.162 86.8008 54.3001C86.4787 54.4523 86.245 54.4912 85.7742 54.47C85.4025 54.4558 85.3352 54.4417 85.0131 54.3107C84.3086 54.031 83.5936 53.8222 82.7333 53.6487C81.2465 53.3478 79.6535 53.2062 78.588 53.2735C78.3048 53.2912 77.7632 53.3266 77.3844 53.3478C75.8657 53.4328 74.7931 53.631 72.216 54.3036C66.113 55.8966 59.5109 60.3145 54.2009 66.3573C50.0131 71.1222 46.7245 76.8109 45.0182 82.2342C44.3102 84.4751 43.8889 86.5105 43.6588 88.7832C43.5809 89.5656 43.5703 91.902 43.6411 92.6418C43.8217 94.4933 44.2358 96.2562 44.8022 97.5731C44.873 97.7324 44.9757 97.9979 45.0359 98.1642C45.0925 98.3306 45.358 98.8935 45.6235 99.4209C46.0731 100.309 46.1262 100.394 46.3634 100.646C46.8908 101.198 47.482 101.354 48.2148 101.131C49.1494 100.84 50.1441 99.8457 50.9583 98.3731C51.3548 97.6616 51.7867 96.5146 52.0203 95.5623C52.3566 94.1959 52.4876 92.4684 52.3212 91.6082C52.0203 90.0541 52.215 88.0929 52.8876 85.8627C53.6876 83.2325 55.2205 80.135 57.1816 77.1897C61.0013 71.4585 66.1555 66.3255 71.2602 63.1642C72.0036 62.704 72.8426 62.2403 73.632 61.858C74.0108 61.6739 74.4568 61.4509 74.6232 61.3624C75.2604 61.0225 76.4675 60.4349 76.8888 60.2544C77.4764 60.0066 78.4606 59.6738 79.0447 59.5216C80.1244 59.2419 81.0164 59.1322 81.9439 59.164C83.2396 59.2065 84.1741 59.5216 84.8857 60.1482C85.1264 60.3641 85.4662 60.5411 85.8273 60.6473C86.0716 60.7181 86.1919 60.7287 86.6769 60.7287C87.1583 60.7287 87.2893 60.7181 87.5442 60.6473C88.1779 60.4738 88.7513 60.1057 88.9956 59.7057C89.5868 58.7428 89.9903 58.2436 90.6594 57.6418C91.9126 56.5055 93.3817 55.6311 95.226 54.9231C96.5287 54.4204 97.9978 54.3567 99.1837 54.7532C100.182 55.086 100.936 55.8294 100.989 56.5267C101.017 56.9409 100.943 57.3374 100.727 57.9038C100.072 59.6349 99.7218 61.3624 99.7218 62.8669C99.7218 63.7767 99.8669 64.5342 100.157 65.1466C100.54 65.9538 101.017 66.4529 101.743 66.7998C102.274 67.0512 102.504 67.0972 103.315 67.0972C103.959 67.0972 104.065 67.0901 104.483 66.9981C105.35 66.8104 106.543 66.3715 107.52 65.8723C108.246 65.5006 108.795 65.1467 110.006 64.2687C110.278 64.0705 110.636 63.8404 110.798 63.7554C110.965 63.674 111.241 63.5289 111.414 63.4297C111.793 63.2209 112.222 63.0722 112.685 62.9908C112.976 62.9377 113.057 62.9341 113.223 62.9731C113.638 63.0651 113.953 63.5076 114.101 64.1979C114.169 64.5024 114.179 64.6617 114.176 65.3307C114.176 65.8476 114.158 66.2228 114.123 66.4458C114.073 66.7538 114.073 66.8494 114.133 67.5786C114.317 69.7628 114.53 70.7575 115.046 71.8089C115.8 73.3453 117.248 74.74 118.802 75.4233C119.988 75.9436 121.082 76.1596 122.537 76.156C123.73 76.1525 124.714 76.0144 125.875 75.6852C129.295 74.7188 132.577 72.432 135.132 69.2318C136.145 67.9645 136.973 66.6228 137.515 65.3838C137.586 65.2174 137.791 64.7643 137.971 64.3749C138.152 63.9855 138.34 63.5536 138.389 63.4191C138.439 63.2811 138.527 63.0687 138.584 62.9412C138.888 62.2722 139.497 60.3818 139.777 59.2455C140.605 55.8577 140.899 52.5513 140.662 49.1883C140.584 48.0449 140.471 46.8519 140.393 46.3209C139.855 42.6464 138.056 38.2497 135.416 34.1539C132.916 30.2741 129.73 26.7837 126.661 24.5499C126.399 24.3588 125.953 24.0083 125.67 23.7711C118.367 17.6611 109.602 13.8414 99.8634 12.5316C99.4067 12.4714 98.3554 12.3086 97.527 12.1741C94.1109 11.6218 91.7674 11.3776 88.6593 11.2572C87.6221 11.2183 84.7759 11.2183 83.7033 11.2608Z" fill="white"/>
<path d="M130.955 23.0665C130.877 23.1444 130.867 23.1798 130.881 23.3391C130.899 23.555 131.068 23.9267 131.249 24.1533C131.32 24.2383 132.584 25.0985 132.962 25.318C133.207 25.4596 134.616 26.4083 135.175 26.8083C137.497 28.4721 139.437 30.1182 141.476 32.1608C142.772 33.4529 144.089 34.9149 144.496 35.5061C144.595 35.6512 144.864 35.9875 145.094 36.2495C146.942 38.3664 148.68 40.8055 149.912 43.0144C150.751 44.5189 151.494 46.2571 151.916 47.7014C152.057 48.197 152.209 48.7846 152.259 49.043C152.355 49.5457 152.432 50.0413 152.475 50.3918C152.535 50.9051 152.535 52.3813 152.471 52.8167C152.355 53.6734 152.114 54.5407 151.824 55.1531C151.477 55.8965 151.225 56.6328 150.861 58.0028C150.507 59.3338 150.347 60.3286 150.177 62.3393C150.103 63.2278 150.092 65.7943 150.16 66.6758C150.372 69.4122 150.85 71.4229 151.678 73.0796C152.103 73.9292 152.478 74.4638 153.031 75.0125C153.852 75.8267 154.659 76.1984 155.583 76.1878C156.355 76.1807 157.024 75.9577 157.795 75.4585C158.472 75.016 159.491 74.0213 159.934 73.3628C160.079 73.1504 160.224 72.938 160.259 72.892C160.358 72.7681 160.751 71.9468 160.822 71.7203C160.858 71.6141 160.96 71.2849 161.052 70.9946C161.661 69.0476 161.997 67.3024 162.132 65.3837C162.383 61.7552 162.058 59.2524 160.822 55.369C159.873 52.3777 158.596 49.6094 156.811 46.6571C155.625 44.6959 154.312 42.8976 152.447 40.6745C152.114 40.2745 151.668 39.7399 151.455 39.4886C149.317 36.9221 146.889 34.4228 144.237 32.0546C142.839 30.805 139.497 28.0473 138.184 27.0596C137.016 26.1782 135.826 25.3498 134.644 24.5958C134.272 24.3586 133.012 23.6471 132.757 23.5338C132.286 23.3214 131.292 22.9745 131.15 22.9745C131.086 22.9745 131.012 23.0099 130.955 23.0665Z" fill="white"/>
<path d="M144.379 53.6805C144.227 53.7478 144.131 53.8646 144.007 54.1407C143.798 54.608 143.777 54.7885 143.844 55.5567C143.961 56.9586 143.982 57.4789 143.986 58.9587C143.99 60.1339 143.975 60.6543 143.926 61.242C143.89 61.6597 143.848 62.219 143.827 62.481C143.781 63.1005 143.706 63.681 143.614 64.1412C143.451 64.9625 142.959 66.5732 142.559 67.5998C142.358 68.1202 142.099 68.5273 141.271 69.6318C139.791 71.6071 137.993 73.4585 136.194 74.8568C135.44 75.4444 134.393 76.1418 133.529 76.6303C133.267 76.7755 132.948 76.9631 132.824 77.0445C132.7 77.1224 132.456 77.2605 132.286 77.349C127.628 79.742 124.289 82.0395 121.928 84.4785C119.946 86.5282 118.887 88.4575 118.813 90.1673C118.778 91.0027 118.894 91.4913 119.351 92.4223C119.67 93.0736 120.169 93.8241 120.516 94.171C121.089 94.741 122.24 95.5729 123.033 95.9906C123.985 96.4897 124.937 96.7163 126.113 96.7163C128.838 96.7163 131.738 95.3605 134.612 92.7444C136.449 91.0735 138.389 88.677 139.749 86.3937C141.43 83.5687 142.729 80.5456 143.441 77.7915C143.558 77.3525 143.738 76.7967 143.958 76.2126C145.526 72.0531 146.432 68.1343 146.758 64.1094C146.843 63.0367 146.843 60.6366 146.758 59.7198C146.598 58.0489 146.354 56.8311 145.929 55.5957C145.653 54.7992 145.409 54.346 145.059 53.992C144.751 53.677 144.574 53.5956 144.379 53.6805ZM137.763 79.0163C136.524 83.1298 134.361 86.9601 131.978 89.2469C131.511 89.6965 131.178 89.9478 130.626 90.2629C129.316 91.0134 128.028 91.1974 126.874 90.808C126.449 90.6629 126.251 90.5532 125.996 90.3231C125.748 90.0965 125.635 89.9053 125.528 89.5195C125.16 88.1991 125.843 86.56 127.419 84.9847C128.265 84.1387 129.539 83.1652 130.945 82.2873C131.447 81.9722 132.817 81.2359 133.529 80.896C133.791 80.7721 134.247 80.5314 134.538 80.358C134.832 80.188 135.355 79.8942 135.706 79.7031C136.152 79.4623 136.587 79.1862 137.157 78.7791C137.603 78.457 137.975 78.2127 137.982 78.2269C137.986 78.2446 137.89 78.5986 137.763 79.0163Z" fill="white"/>
<path d="M152.638 81.4166C152.454 81.4768 152.326 81.5759 152.273 81.7104C152.231 81.8202 152.22 82.0255 152.22 82.776C152.22 83.8486 152.192 84.0752 151.951 84.9248C151.675 85.8983 151.225 86.6664 150.51 87.3957C149.884 88.0364 149.285 88.4648 148.149 89.0843C147.087 89.6648 146.492 90.1392 146 90.7905C145.639 91.272 145.352 91.7251 145.14 92.1499C145.059 92.3127 144.938 92.5358 144.871 92.6455C144.634 93.042 144.336 94.0226 144.195 94.8899C144.149 95.1801 144.131 95.481 144.131 96.0581C144.131 96.851 144.159 97.1413 144.294 97.6865C144.45 98.3201 145.147 99.2582 145.883 99.8175C146.234 100.083 146.921 100.43 147.299 100.536C148.432 100.848 149.71 100.734 150.716 100.235C152.468 99.3609 153.983 97.2617 154.592 94.8615C154.79 94.0686 154.84 93.75 154.946 92.4827C154.967 92.2278 155.006 91.8702 155.034 91.6826C155.091 91.3109 155.141 90.7233 155.194 89.7746C155.289 88.1639 154.981 85.9761 154.415 84.238C154.153 83.4309 153.509 81.9618 153.289 81.6786C153.13 81.4626 152.85 81.3529 152.638 81.4166Z" fill="white"/>
<path d="M65.0971 90.6382C65.0864 90.6488 64.913 90.6807 64.7077 90.7126C63.6669 90.8683 62.8279 91.2011 61.8332 91.8631C60.488 92.7551 59.1923 94.1357 58.2719 95.6544C57.4365 97.0279 56.7143 98.8156 56.4594 100.143C56.4205 100.348 56.3568 100.653 56.3214 100.819C56.201 101.375 56.1656 101.754 56.1656 102.518C56.1621 103.113 56.1762 103.347 56.2258 103.588C56.6258 105.552 57.9816 106.844 59.741 106.933C60.2508 106.958 60.6402 106.908 61.065 106.766C61.5535 106.604 62.4952 106.126 62.8527 105.857C63.2775 105.538 63.8651 104.943 64.1377 104.554C64.7077 103.75 65.0369 102.734 64.9802 101.963C64.9094 101.01 64.7643 100.419 64.474 99.9024C64.2722 99.5484 64.0634 99.3289 63.6386 99.0422C62.9837 98.5926 62.6651 98.0297 62.5695 97.1554C62.5199 96.6775 62.7005 95.9199 63.0155 95.2898C63.451 94.426 64.2793 93.4915 65.3024 92.7162C65.8192 92.3268 65.9679 92.0188 65.9431 91.4064C65.929 91.0347 65.8475 90.8223 65.6705 90.7055C65.5856 90.6488 65.1395 90.5957 65.0971 90.6382Z" fill="white"/>
<path d="M82.0926 100.925C81.1722 101 80.1775 101.198 79.296 101.492C75.7348 102.674 73.2922 105.651 72.7682 109.45C72.5983 110.678 72.6479 112.338 72.8921 113.436C73.0479 114.151 73.4479 115.34 73.7948 116.137C74.386 117.5 75.3631 119.011 76.2551 119.953C76.4746 120.183 76.5029 120.229 76.4605 120.271C76.4321 120.296 76.2551 120.399 76.064 120.498C74.956 121.075 73.6497 122.073 72.6054 123.146C71.5753 124.201 70.7717 125.334 70.1947 126.537C68.984 129.075 68.7787 131.67 69.5858 134.184C70.0672 135.681 70.8496 136.959 72.0178 138.159C73.7417 139.933 75.9118 141.122 78.542 141.738C80.9244 142.297 83.1971 142.336 85.76 141.862C87.8345 141.48 90.1496 140.595 91.8205 139.54C92.0011 139.426 92.1993 139.31 92.2595 139.278L92.3692 139.221L92.5144 139.391C92.5958 139.487 92.9639 139.904 93.3321 140.318C93.7038 140.736 94.0967 141.186 94.21 141.32L94.4189 141.564L96.3871 141.561C98.1323 141.561 103.003 141.504 103.333 141.483C103.425 141.48 103.46 141.458 103.467 141.405C103.478 141.327 103.382 141.203 102.536 140.202C101.828 139.363 101.276 138.697 100.554 137.812C99.828 136.924 98.6386 135.5 98.1748 134.973L97.8137 134.559L98.0226 134.329C98.3801 133.936 98.6881 133.44 99.1306 132.555C99.8209 131.171 100.327 129.762 100.748 128.066C101.248 126.052 101.46 124.505 101.463 122.902C101.463 122.098 101.435 121.932 101.304 121.939C101.272 121.939 99.92 121.942 98.3023 121.946L95.3641 121.953L95.3924 122.208C95.4349 122.597 95.4242 123.624 95.3711 124.024C95.1269 125.907 94.3622 128.201 93.6295 129.245C93.5303 129.387 93.4383 129.486 93.4241 129.472C93.41 129.454 93.279 129.295 93.1339 129.121C92.879 128.813 92.2099 128.02 89.4735 124.785C88.2345 123.319 86.5034 121.305 86.1105 120.87L85.9158 120.654L86.1353 120.572C86.2592 120.53 86.5813 120.381 86.8539 120.24C89.1266 119.068 91.0453 117.142 92.1816 114.891C93.6826 111.917 93.7675 108.766 92.4223 106.03C91.5267 104.21 90.0718 102.801 88.1354 101.881C86.953 101.322 85.5406 100.957 84.4644 100.939C84.1812 100.936 83.6254 100.922 83.2254 100.911C82.8254 100.904 82.3156 100.908 82.0926 100.925ZM84.5175 107.326C85.1335 107.492 85.6149 107.768 86.0609 108.214C86.5601 108.713 86.8397 109.266 86.999 110.062C87.084 110.487 87.0911 110.593 87.0769 111.067C87.0592 111.588 87.0557 111.613 86.8964 112.073C86.8043 112.331 86.6804 112.625 86.6203 112.724C86.1034 113.567 85.0768 114.593 83.9971 115.344C83.6396 115.595 82.3227 116.395 82.2696 116.395C82.2519 116.395 82.1245 116.261 81.9899 116.094C81.0058 114.901 80.0571 112.713 79.8943 111.273C79.8589 110.954 79.8589 110.862 79.9155 110.579C80.2483 108.83 81.4342 107.588 83.059 107.276C83.4095 107.209 84.1883 107.237 84.5175 107.326ZM80.5279 125.564C80.9598 126.109 82.1528 127.489 83.6998 129.245C84.344 129.975 85.0237 130.746 85.2078 130.962C85.3919 131.175 85.7813 131.624 86.0751 131.957C86.815 132.796 87.4415 133.522 87.7743 133.918C87.9265 134.102 88.0752 134.279 88.1 134.311C88.1425 134.361 88.1141 134.389 87.8593 134.552C87.3884 134.856 86.5707 135.249 86.0574 135.419C83.7387 136.184 81.5085 135.961 79.7208 134.778C78.9809 134.286 78.2057 133.43 77.8269 132.679C77.4056 131.844 77.2003 130.679 77.3101 129.776C77.4835 128.382 77.9862 127.312 79.0447 126.098C79.2995 125.808 80.1208 125.061 80.1491 125.096C80.1633 125.111 80.3332 125.319 80.5279 125.564Z" fill="white"/>
<path d="M38.6179 104.359C37.9382 104.381 37.8815 104.388 37.7364 104.469C37.5948 104.547 37.5736 104.572 37.5452 104.731C37.524 104.834 37.5134 106.335 37.5134 108.282V111.652L36.3239 111.634C35.669 111.623 34.692 111.609 34.1539 111.599L33.1733 111.581L33.1167 111.662C33.0707 111.733 33.0671 112.059 33.0884 114.441C33.1096 116.99 33.1132 117.142 33.1769 117.195C33.2335 117.249 33.4636 117.259 35.3681 117.284C37.0638 117.305 37.5063 117.319 37.5275 117.358C37.5452 117.383 37.5594 121.146 37.5594 125.723C37.5594 130.633 37.5736 134.258 37.5948 134.566C37.7116 136.379 38.3205 137.851 39.5383 139.282C40.1755 140.032 40.9224 140.574 42.0517 141.108C43.4429 141.767 44.512 142.043 45.9492 142.114C47.3086 142.181 49.029 141.848 50.3919 141.253C50.5477 141.186 50.707 141.126 50.7459 141.122C50.8592 141.108 50.8627 141.108 50.884 141.048C50.9158 140.963 50.5937 137.455 50.4415 136.265C50.4061 135.972 50.3707 135.657 50.3707 135.568C50.36 135.313 50.3494 135.31 49.9954 135.416C49.4857 135.568 49.4219 135.579 48.9334 135.621C48.2856 135.674 47.6909 135.589 47.1245 135.363C46.6289 135.161 46.1899 134.75 45.9527 134.265C45.6129 133.575 45.6023 133.384 45.6377 128.555C45.6518 126.414 45.6695 123.022 45.6731 121.019L45.6837 117.38L46.2572 117.404C46.9829 117.436 50.6149 117.44 50.6468 117.408C50.6751 117.38 50.6645 115.981 50.622 114.13C50.6043 113.34 50.5831 112.491 50.5795 112.236C50.5724 111.868 50.5618 111.769 50.5123 111.719C50.4662 111.673 50.3282 111.659 49.6627 111.638C49.2272 111.623 48.3847 111.599 47.79 111.581C47.1953 111.563 46.4944 111.546 46.2324 111.546H45.7545L45.7474 108.898C45.7439 105.998 45.7014 104.646 45.6094 104.508C45.4855 104.32 45.5527 104.324 42.3313 104.331C40.6888 104.335 39.0214 104.345 38.6179 104.359ZM42.5756 126.775C42.565 126.803 42.5543 126.792 42.5543 126.753C42.5508 126.715 42.5614 126.693 42.572 126.707C42.5827 126.718 42.5862 126.75 42.5756 126.775ZM41.7614 128.739C41.7508 128.775 41.7437 128.754 41.7437 128.697C41.7437 128.637 41.7508 128.612 41.7614 128.633C41.7685 128.658 41.7685 128.708 41.7614 128.739Z" fill="white"/>
<path d="M139.511 111.036C139.444 111.043 139.253 111.068 139.087 111.085C136.931 111.344 134.754 112.47 133.26 114.098C132.842 114.551 132.265 115.312 132.007 115.748C131.9 115.928 131.801 116.077 131.791 116.077C131.78 116.077 131.752 116.01 131.727 115.925C131.646 115.656 131.309 115.001 131.058 114.622C130.035 113.103 128.389 112.027 126.272 111.496C124.923 111.156 123.458 111.103 122.024 111.337C119.213 111.8 116.71 113.337 115.376 115.418L115.199 115.694L115.177 115.507C115.167 115.401 115.153 114.87 115.142 114.325C115.131 113.779 115.103 112.962 115.082 112.505L115.036 111.677L111.312 111.698C108.982 111.708 107.563 111.73 107.524 111.751C107.446 111.793 107.453 111.542 107.421 115.139C107.393 118.519 107.453 141.306 107.492 141.345C107.506 141.359 109.312 141.374 111.506 141.381L115.493 141.395L115.563 141.317C115.634 141.239 115.634 141.168 115.623 134.347C115.62 130.559 115.602 125.748 115.588 123.656L115.563 119.854L115.924 119.419C116.955 118.19 118.201 117.44 119.549 117.241C119.956 117.181 120.831 117.22 121.174 117.312C121.546 117.411 121.68 117.461 122.042 117.645C122.693 117.971 123.125 118.364 123.585 119.047C124.166 119.907 124.367 120.573 124.484 121.989C124.516 122.389 124.53 123.603 124.541 126.591C124.558 131.773 124.668 141.172 124.714 141.306L124.753 141.413L125.309 141.434C126.045 141.466 129.628 141.462 131.323 141.427C132.562 141.402 132.686 141.395 132.75 141.335C132.821 141.271 132.821 141.229 132.821 139.264C132.821 138.163 132.796 135.508 132.768 133.366C132.686 127.292 132.644 123.482 132.64 121.854V120.36L132.75 120.166C132.885 119.928 133.277 119.419 133.55 119.125C134.102 118.526 134.973 117.925 135.702 117.634C136.205 117.436 136.432 117.404 137.334 117.404C138.039 117.404 138.202 117.415 138.545 117.486C139.005 117.578 139.405 117.705 139.706 117.854C140.673 118.335 141.444 119.465 141.685 120.732C141.742 121.043 141.756 122.566 141.802 134.956L141.823 141.321L141.919 141.43L142.014 141.54L144.028 141.519C145.136 141.505 146.521 141.48 147.105 141.462C148.33 141.42 149.898 141.352 149.908 141.338C149.912 141.335 149.926 136.991 149.937 131.685C149.947 126.382 149.961 121.628 149.961 121.121C149.969 120.102 149.926 119.663 149.746 118.873C149.055 115.871 147.119 113.344 144.503 112.038C143.554 111.563 142.612 111.266 141.529 111.103C141.172 111.05 139.78 111.004 139.511 111.036Z" fill="white"/>
<path d="M62.0562 111.687C61.1323 111.701 59.4331 111.716 58.2826 111.719C56.2435 111.723 56.1869 111.726 56.0984 111.793C55.9886 111.882 55.9497 112.031 56.0028 112.169C56.0488 112.282 56.0488 115.694 56.0063 131.848C55.9922 137.044 55.9922 141.328 56.0099 141.359C56.0276 141.395 56.0984 141.437 56.1727 141.455C56.2471 141.473 57.9286 141.498 60.0773 141.512C63.6917 141.533 63.851 141.533 63.9253 141.469L63.9997 141.406L64.0386 138.662C64.1129 133.051 64.1448 129.054 64.2333 114.59C64.2404 113.393 64.2545 112.293 64.2687 112.144C64.2899 111.893 64.2864 111.868 64.205 111.776C64.0988 111.652 64.1944 111.655 62.0562 111.687Z" fill="white"/>
<path d="M164.486 121.128C164.415 121.146 164.213 121.227 164.118 121.277C164.09 121.291 164.008 121.489 163.93 121.723C163.856 121.953 163.714 122.307 163.612 122.509C162.659 124.406 160.153 127.298 157.654 129.383C156.652 130.219 155.587 130.955 155.133 131.125C154.146 131.493 153.427 132.258 153.116 133.27C153.027 133.557 153.02 133.631 153.02 134.183C153.02 134.736 153.027 134.81 153.116 135.097C153.42 136.081 154.093 136.831 155.009 137.207C155.516 137.412 155.664 137.44 156.273 137.437C156.787 137.437 156.868 137.426 157.155 137.338C157.587 137.207 158.026 136.973 158.362 136.697C158.518 136.569 158.758 136.378 158.896 136.272C159.771 135.599 161.403 133.178 162.628 130.736C163.396 129.199 164.213 127.16 164.645 125.705C164.744 125.365 164.858 124.997 164.89 124.891C164.925 124.785 164.975 124.544 164.999 124.36C165.024 124.176 165.091 123.698 165.148 123.298C165.205 122.898 165.261 122.466 165.272 122.339C165.311 121.864 165.145 121.337 164.911 121.206C164.791 121.135 164.592 121.1 164.486 121.128Z" fill="white"/>
<path d="M80.6943 144.152C79.8553 144.266 79.4376 144.528 79.4376 144.938C79.4376 145.275 79.6535 145.554 80.4854 146.287C80.9067 146.659 82.4607 147.561 83.1298 147.827C83.282 147.887 83.4873 147.979 83.5865 148.029C83.9405 148.209 86.0397 148.924 87.3141 149.3C90.7089 150.298 94.9145 151.105 99.7572 151.685C104.809 152.294 111.283 152.507 116.413 152.234C116.647 152.22 116.827 152.22 116.816 152.234C116.785 152.27 113.853 152.843 112.837 153.013C108.859 153.678 105.23 154.043 100.642 154.241C100.147 154.263 98.2987 154.287 96.5358 154.294C93.9233 154.305 93.2117 154.302 92.6772 154.256C92.3161 154.227 91.5762 154.181 91.0311 154.149C88.7265 154.022 87.4769 153.887 84.6945 153.473C81.3138 152.97 79.5969 152.652 76.7826 152.004C72.1487 150.935 68.0706 149.707 64.7112 148.361C63.3483 147.816 61.0083 146.783 60.7428 146.609C60.672 146.563 60.3287 146.383 59.9817 146.209C58.9304 145.685 57.4931 145.271 56.6931 145.267C56.24 145.264 56.1161 145.292 55.3691 145.554C54.1691 145.979 53.3619 146.485 52.8876 147.115C52.5725 147.537 52.484 147.951 52.6433 148.266C52.8805 148.73 53.9673 149.926 54.6894 150.514C55.8329 151.445 57.4471 152.443 58.941 153.14C60.1658 153.714 62.2757 154.606 63.012 154.868C63.1784 154.925 63.5607 155.077 63.8616 155.204C64.651 155.537 65.0652 155.689 66.1626 156.061C66.6971 156.241 67.5184 156.535 67.9857 156.716C75.5577 159.636 83.8236 161.431 91.8276 161.902C94.6773 162.068 98.2633 162.075 101.102 161.92C108.628 161.505 115.857 160.114 122.944 157.711C128.969 155.668 134.619 152.978 139.989 149.593C140.704 149.14 140.85 149.016 141.186 148.57C141.37 148.326 141.621 147.668 141.692 147.26C141.752 146.903 141.752 146.864 141.696 146.521C141.625 146.082 141.465 145.678 141.207 145.264C140.92 144.8 140.719 144.613 140.326 144.421C139.844 144.188 139.607 144.131 139.14 144.138C138.255 144.149 137.511 144.305 136.432 144.705C136.092 144.832 135.398 145.076 134.892 145.246C134.385 145.416 133.716 145.646 133.405 145.752C132.814 145.958 131.631 146.273 130.874 146.432C130.63 146.482 130.258 146.57 130.042 146.627C129.55 146.754 129.153 146.836 128.113 147.013C122.902 147.908 115.893 148.368 109.177 148.255C102.433 148.138 96.6986 147.576 92.6241 146.623C92.2949 146.545 91.8948 146.457 91.7391 146.429C91.2789 146.344 90.5461 146.142 90.1567 145.997C89.9549 145.919 89.5868 145.816 89.3319 145.763C88.7584 145.643 88.2132 145.494 87.0132 145.133C84.5139 144.375 84.3051 144.322 83.4201 144.216C82.7687 144.135 81.0978 144.096 80.6943 144.152Z" fill="white"/>
</svg>
